<svg width="188" height="188" viewBox="0 0 188 188" fill="none" xmlns="http://www.w3.org/2000/svg">
<path d="M93.8742 153.383C61.063 153.383 34.3685 126.688 34.3685 93.876C34.3685 61.0636 61.0637 34.3684 93.8742 34.3684C126.688 34.3684 153.384 61.0636 153.384 93.876C153.384 126.688 126.688 153.383 93.8742 153.383ZM93.8742 36.2774C62.1156 36.2774 36.2768 62.1161 36.2768 93.876C36.2768 125.636 62.115 151.473 93.8742 151.473C125.634 151.473 151.473 125.635 151.473 93.876C151.473 62.1168 125.634 36.2774 93.8742 36.2774Z" fill="#52B95D"/>
<path d="M93.8742 136.199C82.5698 136.199 71.9422 131.797 63.9471 123.804C55.954 115.811 51.5521 105.182 51.5521 93.876C51.5521 82.5697 55.9546 71.9414 63.9471 63.9483C71.9422 55.9545 82.5698 51.5526 93.8742 51.5526C105.182 51.5526 115.81 55.9552 123.803 63.9483C131.797 71.9414 136.2 82.5697 136.2 93.876C136.2 105.181 131.796 115.81 123.803 123.804C115.81 131.797 105.182 136.199 93.8742 136.199ZM93.8742 53.4616C83.079 53.4616 72.9319 57.6654 65.2981 65.2979C57.6636 72.9305 53.461 83.0795 53.461 93.876C53.461 104.671 57.663 114.821 65.2981 122.453C72.9312 130.086 83.079 134.291 93.8742 134.291C104.671 134.291 114.82 130.086 122.454 122.453C130.087 114.821 134.291 104.671 134.291 93.876C134.291 83.0795 130.087 72.9305 122.454 65.2979C114.82 57.6654 104.671 53.4616 93.8742 53.4616Z" fill="#52B95D"/>
<path d="M93.8741 119.015C87.1608 119.015 80.8468 116.4 76.0989 111.651C71.3504 106.905 68.7362 100.592 68.7362 93.8761C68.7362 87.1589 71.3498 80.8468 76.0989 76.0996C80.8468 71.3517 87.1608 68.7362 93.8741 68.7362C100.591 68.7362 106.904 71.3511 111.652 76.0996C116.4 80.8487 119.016 87.1621 119.016 93.8761C119.016 100.589 116.4 106.903 111.652 111.651C106.904 116.4 100.591 119.015 93.8741 119.015ZM93.8741 70.6458C87.6693 70.6458 81.8378 73.0626 77.4492 77.4499C73.0619 81.8365 70.6457 87.6706 70.6457 93.8761C70.6457 100.082 73.0619 105.915 77.4492 110.302C81.8378 114.69 87.6693 117.106 93.8741 117.106C100.082 117.106 105.914 114.69 110.301 110.302C114.689 105.914 117.106 100.08 117.106 93.8761C117.106 87.6712 114.689 81.8384 110.301 77.4499C105.914 73.0619 100.082 70.6458 93.8741 70.6458Z" fill="#52B95D"/>
<path d="M93.8742 170.568C73.3902 170.568 54.1307 162.591 39.6465 148.104C25.161 133.622 17.1837 114.364 17.1837 93.8767C17.1837 73.3895 25.1603 54.1307 39.6465 39.6477C54.1301 25.1622 73.3902 17.1849 93.8742 17.1849C114.361 17.1849 133.621 25.1622 148.105 39.6477C162.591 54.1307 170.568 73.3895 170.568 93.8767C170.568 114.364 162.591 133.622 148.105 148.104C133.621 162.59 114.361 170.568 93.8742 170.568ZM93.8742 19.0932C73.8987 19.0932 55.1205 26.8724 40.9961 40.9967C26.8718 55.1191 19.0926 73.8999 19.0926 93.8754C19.0926 113.852 26.8718 132.631 40.9961 146.755C55.1205 160.879 73.8987 168.658 93.8742 168.658C113.852 168.658 132.63 160.879 146.755 146.755C160.879 132.631 168.658 113.852 168.658 93.8754C168.658 73.8993 160.879 55.1185 146.755 40.9967C132.63 26.8731 113.852 19.0932 93.8742 19.0932Z" fill="#52B95D"/>
<path d="M93.874 187.752C68.7996 187.752 45.2246 177.986 27.4944 160.256C9.7643 142.525 0 118.952 0 93.8759C0 68.7996 9.7643 45.2252 27.4944 27.4957C45.2252 9.76494 68.7996 0 93.874 0C118.952 0 142.525 9.76494 160.255 27.4957C177.986 45.2258 187.751 68.7996 187.751 93.8759C187.751 118.952 177.986 142.526 160.255 160.256C142.525 177.986 118.952 187.752 93.874 187.752ZM93.874 1.90957C69.3106 1.90957 46.2162 11.4752 28.8441 28.8447C11.4745 46.2143 1.90766 69.31 1.90766 93.8759C1.90766 118.442 11.4739 141.537 28.8441 158.907C46.2155 176.275 69.31 185.841 93.874 185.841C118.441 185.841 141.535 176.275 158.905 158.907C176.276 141.537 185.842 118.441 185.842 93.8759C185.842 69.31 176.277 46.2143 158.905 28.8447C141.535 11.4752 118.441 1.90957 93.874 1.90957Z" fill="#52B95D"/>
</svg>
