<svg width="64" height="64" viewBox="0 0 64 64" fill="none" xmlns="http://www.w3.org/2000/svg">
<path d="M14.6707 61.3334C13.048 61.3334 11.4707 61.0147 9.98135 60.384C9.57202 60.2107 9.27735 59.8467 9.19202 59.412C9.10669 58.9774 9.24402 58.528 9.55735 58.2147L14.2707 53.5027V49.7307H10.5L5.78669 54.4427C5.47335 54.756 5.02669 54.896 4.58935 54.808C4.15469 54.724 3.78935 54.428 3.61735 54.0187C1.70135 49.4907 2.70669 44.324 6.17735 40.8534C8.44002 38.5894 11.4507 37.3427 14.6534 37.3427C15.9694 37.3427 17.256 37.552 18.488 37.968L37.9587 18.4974C36.5027 14.1867 37.588 9.44003 40.8427 6.18536C43.1067 3.92269 46.1174 2.67603 49.32 2.67603C50.9427 2.67603 52.52 2.99469 54.0094 3.62536C54.4187 3.79869 54.7134 4.16269 54.7987 4.59736C54.884 5.03203 54.7467 5.48136 54.4334 5.79469L49.72 10.5094V14.2814H53.492L58.204 9.56803C58.5174 9.25469 58.9614 9.11469 59.4014 9.20269C59.836 9.28669 60.2014 9.58269 60.3734 9.99203C62.2894 14.52 61.284 19.6867 57.8134 23.1574C55.5507 25.42 52.54 26.6667 49.3374 26.6667C48.0214 26.6667 46.7347 26.4574 45.5027 26.0414L26.032 45.512C27.488 49.8227 26.4014 54.5694 23.1467 57.824C20.884 60.0867 17.8734 61.3334 14.6707 61.3334ZM13.0214 58.5227C13.5614 58.6187 14.112 58.6667 14.6707 58.6667C17.1614 58.6667 19.5014 57.6974 21.2614 55.9387C23.9614 53.24 24.7427 49.2187 23.252 45.6974C23.04 45.1974 23.1534 44.6187 23.5374 44.2347L44.2253 23.5467C44.6107 23.1627 45.1907 23.048 45.688 23.2614C46.8467 23.7507 48.0747 24 49.3374 24C51.828 24 54.168 23.0307 55.928 21.2707C58.1267 19.072 59.0534 15.996 58.5147 13.0267L54.9854 16.556C54.7347 16.8067 54.396 16.9467 54.0427 16.9467H48.3867C47.6507 16.9467 47.0534 16.3507 47.0534 15.6134V9.95736C47.0534 9.60269 47.1934 9.26403 47.444 9.01469L50.972 5.48803C50.4307 5.39203 49.88 5.34403 49.3214 5.34403C46.8307 5.34403 44.4894 6.31336 42.7294 8.07203C40.0307 10.772 39.2494 14.792 40.74 18.3134C40.952 18.8134 40.8387 19.392 40.4547 19.776L19.7654 40.464C19.3814 40.848 18.8014 40.9614 18.3027 40.7494C17.144 40.26 15.916 40.0107 14.6534 40.0107C12.1627 40.0107 9.82135 40.98 8.06269 42.74C5.86402 44.9387 4.93735 48.0147 5.47602 50.984L9.00535 47.4547C9.25602 47.204 9.59469 47.064 9.94802 47.064H15.6054C16.3414 47.064 16.9387 47.66 16.9387 48.3974V54.0547C16.9387 54.4094 16.7987 54.748 16.548 54.9974L13.0214 58.5227Z" fill="white"/>
<path d="M56 61.3331C54.576 61.3331 53.236 60.7785 52.228 59.7705L39.972 47.5131C39.4507 46.9918 39.4507 46.1491 39.972 45.6278L45.628 39.9718C46.1493 39.4505 46.992 39.4505 47.5133 39.9718L59.7707 52.2291C60.7787 53.2358 61.3333 54.5758 61.3333 55.9998C61.3333 57.4251 60.7773 58.7651 59.7707 59.7718C58.764 60.7785 57.4253 61.3331 56 61.3331ZM42.8013 46.5705L54.1147 57.8851C55.1213 58.8918 56.8773 58.8931 57.8853 57.8851C58.3893 57.3811 58.6667 56.7118 58.6667 55.9998C58.6667 55.2878 58.3893 54.6171 57.8867 54.1145L46.572 42.7998L42.8013 46.5705Z" fill="white"/>
<path d="M29.5849 27.6986L14.371 12.4846L12.4854 14.3702L27.6993 29.5842L29.5849 27.6986Z" fill="white"/>
<path d="M38.0854 50.7333C37.744 50.7333 37.4027 50.6026 37.1427 50.3426C36.6214 49.8213 36.6214 48.9786 37.1427 48.4573L48.456 37.1439C48.9774 36.6226 49.82 36.6226 50.3414 37.1439C50.8627 37.6653 50.8627 38.5079 50.3414 39.0293L39.028 50.3426C38.768 50.6026 38.4267 50.7333 38.0854 50.7333Z" fill="white"/>
<path d="M11.5427 16.6466C11.2014 16.6466 10.86 16.5159 10.6 16.2559L3.05735 8.71326C2.80669 8.46393 2.66669 8.12526 2.66669 7.77059C2.66669 7.41593 2.80669 7.07726 3.05735 6.82793L6.82802 3.05726C7.34935 2.53593 8.19202 2.53593 8.71335 3.05726L16.256 10.5999C16.5067 10.8506 16.6467 11.1879 16.6467 11.5426C16.6467 11.8973 16.5067 12.2359 16.256 12.4853L12.4854 16.2559C12.2254 16.5173 11.884 16.6466 11.5427 16.6466ZM5.88535 7.77059L11.5427 13.4279L13.428 11.5426L7.77069 5.88526L5.88535 7.77059Z" fill="white"/>
<path d="M45.0309 43.1424L35.2437 33.3552L33.3581 35.2408L43.1453 45.028L45.0309 43.1424Z" fill="white"/>
</svg>
