<svg width="70" height="70" viewBox="0 0 70 70" fill="none" xmlns="http://www.w3.org/2000/svg">
<path d="M38.2326 60.252L38.2326 60.2521C38.3802 60.5557 38.6102 60.8117 38.8964 60.9908C39.1818 61.1695 39.5117 61.2646 39.8485 61.2653C39.8493 61.2653 39.8501 61.2653 39.8509 61.2653L39.9132 61.2641C39.9139 61.2641 39.9145 61.264 39.9152 61.264C40.263 61.2517 40.5998 61.1388 40.8848 60.9391C41.1704 60.739 41.3917 60.4603 41.5219 60.1368L61.975 9.28568L61.9751 9.28551C62.1072 8.95789 62.1399 8.59867 62.0694 8.25256C61.9988 7.90645 61.828 7.58873 61.5782 7.33896C61.3285 7.08919 61.0107 6.91839 60.6646 6.84782C60.3185 6.77726 59.9593 6.81004 59.6317 6.94209L59.6315 6.94216L8.78445 27.3939L8.78403 27.3941C8.46029 27.5236 8.18113 27.7444 7.98043 28.0295L7.77648 27.8859L7.98043 28.0295C7.77973 28.3146 7.66613 28.6519 7.65342 29.0003C7.64071 29.3488 7.72943 29.6934 7.90882 29.9924C8.08817 30.2914 8.35043 30.5318 8.66378 30.6846L38.2326 60.252ZM38.2326 60.252L28.5939 40.4374L28.5561 40.3597L28.4784 40.3219L8.66397 30.6847L38.2326 60.252ZM14.4124 29.0178L13.89 29.228L14.3964 29.4745L30.6905 37.4042L30.6906 37.4042C31.0533 37.5805 31.3462 37.8735 31.5226 38.2362L31.5226 38.2362L39.4523 54.5304L39.6989 55.0371L39.9091 54.5142L56.8335 12.398L57.0521 11.8539L56.5082 12.0728L14.4124 29.0178Z" fill="white" stroke="#19413B" stroke-width="0.5"/>
<path d="M29.9031 41.0637C29.4975 41.0636 29.101 40.9432 28.7638 40.7178C28.4266 40.4923 28.1638 40.172 28.0087 39.7972C27.8536 39.4224 27.8131 39.01 27.8923 38.6122C27.9716 38.2144 28.167 37.849 28.4539 37.5623L58.8533 7.16287C59.0438 6.97247 59.2699 6.82145 59.5188 6.71843C59.7677 6.61542 60.0344 6.56244 60.3037 6.5625C60.573 6.56256 60.8397 6.61568 61.0885 6.7188C61.3373 6.82193 61.5634 6.97306 61.7538 7.16355C61.9442 7.35405 62.0952 7.58018 62.1982 7.82903C62.3013 8.07789 62.3542 8.3446 62.3542 8.61394C62.3541 8.88327 62.301 9.14996 62.1979 9.39877C62.0947 9.64758 61.9436 9.87364 61.7531 10.064L31.3537 40.4689C30.968 40.8515 30.4463 41.0653 29.9031 41.0637Z" fill="white"/>
</svg>
