<svg width="45" height="45" viewBox="0 0 45 45" fill="none" xmlns="http://www.w3.org/2000/svg">
<path d="M35.4589 17.726C35.4589 18.3511 35.4589 18.9762 35.4589 19.6014C37.7377 19.6014 40.0166 19.6014 42.2954 19.6014C42.2954 18.9762 42.2954 18.3511 42.2954 17.726C40.0166 17.726 37.7377 17.726 35.4589 17.726Z" fill="#52B95D" stroke="#52B95D" stroke-width="0.5"/>
<path d="M36.253 22.1007C35.9702 22.6587 35.6874 23.2167 35.4047 23.7747C37.4391 24.8011 39.4669 25.8404 41.5013 26.8668C41.7841 26.3088 42.0668 25.7509 42.3496 25.1929C40.3152 24.1665 38.2873 23.1271 36.253 22.1007Z" fill="#52B95D" stroke="#52B95D" stroke-width="0.5"/>
<path d="M41.5013 10.4604C39.4669 11.4869 37.4391 12.5262 35.4047 13.5526C35.6874 14.1106 35.9702 14.6686 36.253 15.2266C38.2837 14.1916 40.3189 13.1655 42.3496 12.1305C42.0668 11.5738 41.7841 11.0171 41.5013 10.4604Z" fill="#52B95D" stroke="#52B95D" stroke-width="0.5"/>
<path d="M25.8059 9.58008C20.2547 11.3798 14.7022 13.1755 9.15067 14.9744C9.04508 14.9573 8.94923 14.9121 8.83939 14.9121H4.72684C3.59363 14.9121 2.65042 15.8553 2.65042 16.9885V24.3347C2.65042 25.4679 3.59363 26.4111 4.72684 26.4111H5.38968L9.8721 38.9685H16.4895L12.4942 27.0447C16.9303 27.9647 21.3663 28.885 25.8023 29.8059V29.8462C25.8023 31.8425 27.497 33.4351 29.5413 33.4351C31.5855 33.4351 33.2803 31.8425 33.2803 29.8462V9.62402C33.2803 7.62771 31.5855 6.03149 29.5489 6.03149C27.5122 6.03149 25.8312 7.60481 25.8059 9.58008ZM29.5413 7.90649C30.6234 7.90649 31.4053 8.68023 31.4053 9.62402V29.8462C31.4053 30.79 30.6234 31.5601 29.5413 31.5601C28.4592 31.5601 27.6773 30.79 27.6773 29.8462V9.62402C27.6773 8.68023 28.4592 7.90649 29.5413 7.90649ZM25.8023 11.5503V27.8906C20.8475 26.8626 15.8927 25.8347 10.9378 24.8071V16.366C15.8926 14.7607 20.8477 13.1562 25.8023 11.5503ZM4.72684 16.7871H8.83939C8.96629 16.7871 9.0408 16.8616 9.0408 16.9885V19.7241H4.52542V16.9885C4.52542 16.8616 4.59993 16.7871 4.72684 16.7871ZM4.52542 21.5991H9.0408V24.3347C9.0408 24.4616 8.96629 24.5361 8.83939 24.5361H4.72684C4.59993 24.5361 4.52542 24.4616 4.52542 24.3347V21.5991ZM9.13968 26.3489C9.54849 26.4337 9.95767 26.5168 10.3665 26.6016L13.8821 37.0935H11.1941L7.3782 26.4111H8.83939C8.9455 26.4111 9.03751 26.3648 9.13968 26.3489Z" fill="#52B95D" stroke="#52B95D" stroke-width="0.5"/>
</svg>
