<svg width="40" height="41" viewBox="0 0 40 41" fill="none" xmlns="http://www.w3.org/2000/svg">
<path d="M20.3513 40.0144C31.1177 40.0144 39.8456 31.2537 39.8456 20.4469C39.8456 9.64005 31.1177 0.879395 20.3513 0.879395C9.58484 0.879395 0.856934 9.64005 0.856934 20.4469C0.856934 31.2537 9.58484 40.0144 20.3513 40.0144Z" fill="#52B95D"/>
<path d="M24.0156 17.1648H21.0811V15.234C21.0811 14.5067 21.5607 14.3384 21.896 14.3384C22.2312 14.3384 23.9666 14.3384 23.9666 14.3384V11.1471L21.1146 11.1367C17.9455 11.1367 17.2261 13.5154 17.2261 15.0399V17.1674H15.3953V20.4546H17.2261C17.2261 24.6761 17.2261 29.7595 17.2261 29.7595H21.0811C21.0811 29.7595 21.0811 24.6243 21.0811 20.4546H23.6804L24.0156 17.1648Z" fill="white"/>
</svg>
