<svg width="40" height="41" viewBox="0 0 40 41" fill="none" xmlns="http://www.w3.org/2000/svg">
<path d="M20.1154 40.0144C30.8819 40.0144 39.6098 31.2537 39.6098 20.4469C39.6098 9.64005 30.8819 0.879395 20.1154 0.879395C9.34901 0.879395 0.621094 9.64005 0.621094 20.4469C0.621094 31.2537 9.34901 40.0144 20.1154 40.0144Z" fill="#52B95D"/>
<path d="M16.887 15.1797H13.0345V27.883H16.887V15.1797Z" fill="white"/>
<path d="M26.2448 15.1797C24.0426 15.1797 23.4315 15.9044 22.9416 16.8362V15.1797H19.0891V27.883H22.9416V20.7031C22.9416 19.5979 22.9416 18.4927 24.8678 18.4927C26.794 18.4927 26.794 19.5979 26.794 20.7031V27.883H30.6465V20.7031C30.6439 17.3875 30.0947 15.1797 26.2448 15.1797Z" fill="white"/>
<path d="M14.9608 14.0744C16.0246 14.0744 16.887 13.2088 16.887 12.141C16.887 11.0732 16.0246 10.2075 14.9608 10.2075C13.897 10.2075 13.0345 11.0732 13.0345 12.141C13.0345 13.2088 13.897 14.0744 14.9608 14.0744Z" fill="white"/>
</svg>
