<svg width="30" height="40" viewBox="0 0 30 40" fill="none" xmlns="http://www.w3.org/2000/svg">
<path d="M13.9622 39.5066C6.50699 39.5066 0.441895 33.7052 0.441895 26.5741C0.441895 26.571 0.441895 26.5684 0.441895 26.5653C0.441895 26.5648 0.441895 26.564 0.441895 26.5631C0.441895 26.5622 0.441895 26.5609 0.441895 26.5596C0.450175 19.4571 6.48537 13.6808 13.9024 13.6808C14.3468 13.6808 14.7074 14.0257 14.7074 14.4508V18.5903H16.6555C17.0999 18.5903 17.4605 18.9353 17.4605 19.3603C17.4605 19.7853 17.0999 20.1303 16.6555 20.1303H14.7074V25.7931H16.6914C17.1358 25.7931 17.4964 26.1381 17.4964 26.5631C17.4964 26.9881 17.1358 27.3331 16.6914 27.3331H14.7074V33.3188H19.2545C19.8074 32.2083 20.2233 30.9565 20.4123 29.6312C20.4726 29.2097 20.8825 28.9149 21.3185 28.9721C21.7592 29.0293 22.0674 29.4178 22.0076 29.8389C21.836 31.0432 21.4878 32.2215 21.0103 33.3184H23.5555C25.0114 31.429 25.8725 29.0957 25.8725 26.5737C25.8725 26.1486 26.2332 25.8036 26.6775 25.8036C27.1219 25.8036 27.4825 26.1486 27.4825 26.5737C27.4825 33.7052 21.4174 39.5066 13.9622 39.5066ZM9.42247 34.8588C10.4225 36.4525 11.6999 37.5446 13.0974 37.8671V34.8588H9.42247ZM14.7074 34.8588V37.857C15.9066 37.5191 17.2489 36.4222 18.3419 34.8588H14.7074ZM20.2242 34.8588C19.738 35.6816 19.18 36.4319 18.576 37.0773C19.8985 36.5436 21.1005 35.7877 22.13 34.8588H20.2242ZM5.79446 34.8588C6.70388 35.6794 7.74761 36.365 8.89025 36.8815C8.39161 36.2902 7.93897 35.6112 7.54107 34.8588H5.79446ZM8.61149 33.3188H13.0974V27.3335H7.28716C7.37778 29.5463 7.85893 31.6094 8.61149 33.3188ZM4.36891 33.3188H6.84326C6.16844 31.5668 5.75305 29.5313 5.67531 27.3335H2.07811C2.23221 29.5639 3.05975 31.62 4.36891 33.3188ZM7.28716 25.7935H13.0974V20.1307H8.43577C7.78257 21.7609 7.36996 23.7 7.28716 25.7935ZM2.0795 25.7935H5.67577C5.75075 23.7277 6.12059 21.8063 6.72273 20.1307H4.14995C2.97281 21.7614 2.22854 23.7005 2.0795 25.7935ZM9.17637 18.5907H13.0974V15.3013C11.5721 15.597 10.2031 16.8004 9.17637 18.5907ZM5.48487 18.5907H7.37501C7.79775 17.7354 8.28811 16.9702 8.83505 16.3124C7.58201 16.8827 6.44995 17.6566 5.48487 18.5907ZM21.8457 27.7678C20.0913 27.7678 18.6634 26.4021 18.6634 24.7239C18.6634 23.4281 19.514 22.3188 20.709 21.8806C17.5999 16.6112 14.2516 10.5137 14.2516 7.81425C14.2516 3.77769 17.685 0.49353 21.905 0.49353C26.1251 0.49353 29.5585 3.77769 29.5585 7.81425C29.5585 10.5695 24.7184 19.1011 23.0762 21.9167C24.2221 22.3778 25.0284 23.4624 25.0284 24.7239C25.028 26.4021 23.6001 27.7678 21.8457 27.7678ZM21.8457 23.2195C20.9786 23.2195 20.2734 23.8945 20.2734 24.7234C20.2734 25.5524 20.9786 26.2274 21.8457 26.2274C22.7128 26.2274 23.418 25.5529 23.418 24.7234C23.418 23.8941 22.7128 23.2195 21.8457 23.2195ZM21.9046 2.03353C18.5723 2.03353 15.8611 4.62689 15.8611 7.81425C15.8611 10.2915 19.8295 17.2523 21.9014 20.7696C24.5546 16.1941 27.9481 9.70581 27.9481 7.81425C27.9481 4.62689 25.2368 2.03353 21.9046 2.03353ZM21.8457 12.4202C19.3852 12.4202 17.3832 10.5053 17.3832 8.15173C17.3832 5.79817 19.3852 3.88329 21.8457 3.88329C24.3062 3.88329 26.3082 5.79817 26.3082 8.15173C26.3082 10.5053 24.3062 12.4202 21.8457 12.4202ZM21.8457 5.42373C20.273 5.42373 18.9932 6.64781 18.9932 8.15217C18.9932 9.65653 20.273 10.8806 21.8457 10.8806C23.4184 10.8806 24.6982 9.65653 24.6982 8.15217C24.6982 6.64737 23.4184 5.42373 21.8457 5.42373Z" fill="#52B95D" stroke="#52B95D" stroke-width="0.2"/>
</svg>
