<svg width="40" height="40" viewBox="0 0 40 40" fill="none" xmlns="http://www.w3.org/2000/svg">
<path d="M26.991 7.5H2.5C1.80908 7.5 1.25 6.94092 1.25 6.25C1.25 5.55908 1.80908 5 2.5 5H26.991C27.6819 5 28.241 5.55908 28.241 6.25C28.241 6.94092 27.6819 7.5 26.991 7.5Z" fill="#52B95D" stroke="#52B95D" stroke-width="0.4"/>
<path d="M14.1943 14.375H2.5C1.80908 14.375 1.25 13.8159 1.25 13.125C1.25 12.4341 1.80908 11.875 2.5 11.875H14.1943C14.8853 11.875 15.4443 12.4341 15.4443 13.125C15.4443 13.8159 14.8853 14.375 14.1943 14.375Z" fill="#52B95D" stroke="#52B95D" stroke-width="0.4"/>
<path d="M14.1943 21.25H2.5C1.80908 21.25 1.25 20.6909 1.25 20C1.25 19.3091 1.80908 18.75 2.5 18.75H14.1943C14.8853 18.75 15.4443 19.3091 15.4443 20C15.4443 20.6909 14.8853 21.25 14.1943 21.25Z" fill="#52B95D" stroke="#52B95D" stroke-width="0.4"/>
<path d="M14.1943 28.125H2.5C1.80908 28.125 1.25 27.5659 1.25 26.875C1.25 26.1841 1.80908 25.625 2.5 25.625H14.1943C14.8853 25.625 15.4443 26.1841 15.4443 26.875C15.4443 27.5659 14.8853 28.125 14.1943 28.125Z" fill="#52B95D" stroke="#52B95D" stroke-width="0.4"/>
<path d="M27.981 35H2.5C1.80908 35 1.25 34.4409 1.25 33.75C1.25 33.0591 1.80908 32.5 2.5 32.5H27.981C28.6719 32.5 29.231 33.0591 29.231 33.75C29.231 34.4409 28.6719 35 27.981 35Z" fill="#52B95D" stroke="#52B95D" stroke-width="0.4"/>
<path d="M37.5 30.5835C37.1802 30.5835 36.8604 30.4614 36.6162 30.2173L31.8762 25.4773C31.3879 24.989 31.3879 24.198 31.8762 23.7097C32.3645 23.2214 33.1555 23.2214 33.6438 23.7097L38.3838 28.4497C38.8721 28.938 38.8721 29.729 38.3838 30.2173C38.1396 30.4614 37.8198 30.5835 37.5 30.5835Z" fill="#52B95D" stroke="#52B95D" stroke-width="0.4"/>
<path d="M26.991 28.2275C24.5813 28.2288 22.1729 27.3108 20.3394 25.4773C18.562 23.7 17.583 21.3379 17.583 18.8245C17.583 16.311 18.562 13.949 20.3394 12.1729C22.1155 10.3955 24.4775 9.4165 26.991 9.4165C29.5044 9.4165 31.8665 10.3955 33.6438 12.1729C35.4211 13.949 36.4001 16.311 36.4001 18.8245C36.4001 21.3379 35.4211 23.7 33.6438 25.4773C31.8091 27.3108 29.3994 28.2275 26.991 28.2275ZM26.991 11.9165C25.1465 11.9165 23.4119 12.6355 22.1069 13.9404C20.802 15.2454 20.083 16.98 20.083 18.8245C20.083 20.6702 20.802 22.4048 22.1069 23.7097C24.7998 26.4026 29.1809 26.4026 31.8762 23.7097C33.1812 22.4048 33.9001 20.6702 33.9001 18.8245C33.9001 16.98 33.1812 15.2454 31.8762 13.9404C30.5713 12.6355 28.8367 11.9165 26.991 11.9165Z" fill="#52B95D" stroke="#52B95D" stroke-width="0.4"/>
</svg>
