<?xml version="1.0" encoding="utf-8"?>
<!-- Generator: Adobe Illustrator 16.0.0, SVG Export Plug-In . SVG Version: 6.00 Build 0)  -->
<!DOCTYPE svg PUBLIC "-//W3C//DTD SVG 1.1//EN" "http://www.w3.org/Graphics/SVG/1.1/DTD/svg11.dtd">
<svg version="1.1" id="Layer_1" xmlns="http://www.w3.org/2000/svg" xmlns:xlink="http://www.w3.org/1999/xlink" x="0px" y="0px"
	 width="209.5px" height="31px" viewBox="0 0 209.5 31" enable-background="new 0 0 209.5 31" xml:space="preserve">
<g>
	<path fill="#FFFFFF" d="M62.671,11.18l-4.092,1.254c-0.231-1.287-1.287-3.3-4.257-3.3c-2.211,0-3.663,1.419-3.663,2.97
		c0,1.287,0.825,2.31,2.541,2.64l3.267,0.627c4.257,0.825,6.534,3.597,6.534,6.897c0,3.597-3.003,7.227-8.448,7.227
		c-6.204,0-8.943-3.993-9.306-7.326l4.224-1.122c0.198,2.31,1.815,4.389,5.115,4.389c2.442,0,3.795-1.221,3.795-2.871
		c0-1.353-1.023-2.409-2.838-2.772l-3.267-0.66c-3.729-0.759-6.138-3.168-6.138-6.699c0-4.158,3.729-7.326,8.151-7.326
		C59.965,5.108,62.144,8.54,62.671,11.18z M81.499,29H66.846V5.603h14.652v4.29H71.4v5.346h9.141v4.059H71.4v5.412h10.098V29z
		 M89.322,17.285c0,5.28,3.696,7.788,7.293,7.788c3.63,0,7.327-2.508,7.327-7.788c0-5.28-3.696-7.788-7.327-7.788
		C93.018,9.497,89.322,12.005,89.322,17.285z M84.603,17.318c0-7.557,5.676-12.21,12.012-12.21c6.37,0,12.045,4.653,12.045,12.21
		c0,7.524-5.676,12.177-12.045,12.177C90.279,29.495,84.603,24.842,84.603,17.318z M136.502,11.18l-4.092,1.254
		c-0.231-1.287-1.287-3.3-4.257-3.3c-2.211,0-3.663,1.419-3.663,2.97c0,1.287,0.825,2.31,2.541,2.64l3.267,0.627
		c4.257,0.825,6.534,3.597,6.534,6.897c0,3.597-3.003,7.227-8.448,7.227c-6.204,0-8.943-3.993-9.306-7.326l4.224-1.122
		c0.198,2.31,1.815,4.389,5.115,4.389c2.442,0,3.795-1.221,3.795-2.871c0-1.353-1.023-2.409-2.838-2.772l-3.267-0.66
		c-3.729-0.759-6.138-3.168-6.138-6.699c0-4.158,3.729-7.326,8.151-7.326C133.796,5.108,135.974,8.54,136.502,11.18z M157.839,9.926
		h-7.392V29h-4.587V9.926h-7.392V5.603h19.371V9.926z M174.758,29l-1.947-5.346h-9.504L161.36,29h-4.818l8.976-23.397h5.28
		L179.708,29H174.758z M168.059,10.652l-3.234,8.844h6.468L168.059,10.652z M194.251,29l-4.587-9.009h-2.376V29h-4.587V5.603h9.141
		c4.554,0,7.458,3.135,7.458,7.194c0,3.267-1.914,5.742-4.983,6.633l5.016,9.57H194.251z M187.289,16.064h3.696
		c2.31,0,3.663-1.32,3.663-3.234c0-1.98-1.353-3.267-3.663-3.267h-3.696V16.064z"/>
	<g>
		<defs>
			<rect id="SVGID_1_" x="2.257" width="31" height="31"/>
		</defs>
		<clipPath id="SVGID_2_">
			<use xlink:href="#SVGID_1_"  overflow="visible"/>
		</clipPath>
		<g clip-path="url(#SVGID_2_)">
			<path fill="#52B95D" d="M10.601,30.994H6.465c-0.605,0-1.096-0.497-1.096-1.096v-8.464c0-0.605,0.496-1.096,1.096-1.096h4.135
				c0.605,0,1.096,0.496,1.096,1.096v8.464C11.703,30.503,11.206,30.994,10.601,30.994z"/>
			<path fill="#52B95D" d="M19.628,30.994h-3.742c-0.708,0-1.295-0.582-1.295-1.296V17.486c0-0.708,0.581-1.295,1.295-1.295h3.742
				c0.708,0,1.295,0.581,1.295,1.295v12.212C20.924,30.413,20.343,30.994,19.628,30.994z"/>
			<path fill="#52B95D" d="M28.686,30.994h-3.409c-0.805,0-1.459-0.66-1.459-1.459V13.581c0-0.805,0.66-1.459,1.459-1.459h3.409
				c0.805,0,1.459,0.66,1.459,1.459v15.954C30.145,30.34,29.491,30.994,28.686,30.994z"/>
			<path fill="#52B95D" d="M29.207,0c-1.332,0.055-2.367,1.181-2.313,2.519l-6.152,6.049l-5.243-4.589l-9.597,9.627
				c-1.235,0.157-2.162,1.223-2.113,2.488c0.055,1.332,1.187,2.368,2.519,2.313s2.367-1.187,2.313-2.519
				c-0.006-0.109-0.03-0.212-0.048-0.321l7.223-6.933l5.068,4.438l8.398-8.247c0.048,0,0.097,0.012,0.146,0.006
				c1.332-0.054,2.367-1.187,2.313-2.519C31.665,0.981,30.539-0.055,29.207,0z"/>
		</g>
	</g>
</g>
</svg>
