<svg width="68" height="68" viewBox="0 0 68 68" fill="none" xmlns="http://www.w3.org/2000/svg">
<path d="M64.6537 47.1613C64.3927 44.0179 63.0283 41.1861 60.9412 39.0561C61.2526 37.3912 61.4194 35.6934 61.4194 34C61.4194 18.881 49.119 6.58065 34 6.58065C32.7299 6.58065 31.4368 6.6969 30.1459 6.88006L24.9823 1.71645L22.9335 3.76523C22.2612 3.42194 21.5604 3.13129 20.8387 2.89877V0H12.0645V2.89877C11.3428 3.13129 10.642 3.42194 9.96968 3.76523L7.9209 1.71645L1.71645 7.9209L3.76523 9.96968C3.42084 10.642 3.13129 11.3428 2.89877 12.0645H0V20.8387H2.89877C3.13239 21.5604 3.42194 22.2612 3.76632 22.9335L1.71755 24.9823L6.88116 30.1459C6.6969 31.439 6.58065 32.7321 6.58065 34C6.58065 49.119 18.881 61.4194 34 61.4194C37.4066 61.4194 40.7199 60.7975 43.871 59.5779V61.4194H41.6774V63.6129H43.871V68H59.2258V63.6129H61.4194V61.4194H59.2258V58.9406C62.3714 56.6791 64.3258 53.1848 64.6439 49.3548H68V47.1613H64.6537ZM4.81923 24.9823L6.49948 23.301L6.06736 22.5694C5.49703 21.6043 5.066 20.5612 4.78413 19.4677L4.57136 18.6452H2.19355V14.2581H4.57136L4.78413 13.4355C5.066 12.342 5.49703 11.299 6.06736 10.3338L6.49948 9.60226L4.81923 7.9209L7.9209 4.81813L9.60226 6.49948L10.3349 6.06626C11.299 5.49703 12.342 5.0649 13.4355 4.78303L14.2581 4.57136V2.19355H18.6452V4.57136L19.4677 4.78303C20.5612 5.0649 21.6043 5.49703 22.5683 6.06626L23.301 6.49948L24.9823 4.81813L28.084 7.9209L26.4037 9.60226L26.8359 10.3338C27.4062 11.299 27.8372 12.342 28.1191 13.4355L28.3319 14.2581H30.7097V18.6452H28.3319L28.1191 19.4677C27.8372 20.5612 27.4062 21.6043 26.8359 22.5694L26.4037 23.301L28.084 24.9823L24.9823 28.0851L23.301 26.4037L22.5683 26.837C21.6043 27.4062 20.5612 27.8383 19.4677 28.1202L18.6452 28.3319V30.7097H14.2581V28.3319L13.4355 28.1202C12.342 27.8383 11.299 27.4062 10.3349 26.837L9.60226 26.4037L7.9209 28.0851L4.81923 24.9823ZM34 59.2258C20.0896 59.2258 8.77419 47.9093 8.77419 34C8.77419 32.685 8.89484 31.3403 9.10981 29.9979L9.96968 29.138C10.642 29.4813 11.3428 29.7719 12.0645 30.0045V32.9032H20.8387V30.0045C21.5604 29.7719 22.2612 29.4813 22.9335 29.138L24.9823 31.1868L31.1857 24.9823L29.1369 22.9335C29.4813 22.2612 29.7708 21.5604 30.0045 20.8387H32.9032V12.0645H30.0045C29.7708 11.3428 29.4813 10.642 29.1369 9.96968L29.9968 9.10981C31.3381 8.89484 32.6828 8.77419 34 8.77419C47.9104 8.77419 59.2258 20.0907 59.2258 34C59.2258 35.1395 59.1403 36.2802 58.9867 37.411C56.8688 35.9545 54.3079 35.0968 51.5484 35.0968C44.6606 35.0968 39.0035 40.4172 38.443 47.1613H35.0968V49.3548H38.4529C38.7205 52.5728 40.1463 55.5461 42.4638 57.7572C39.7515 58.7268 36.913 59.2258 34 59.2258ZM57.0323 65.8064H46.0645V63.6129H57.0323V65.8064ZM57.5291 57.4436L57.0323 57.7682V61.4194H52.6452V52.4894C54.5327 51.9992 55.9355 50.2959 55.9355 48.2581C55.9355 45.8386 53.9679 43.871 51.5484 43.871C49.1289 43.871 47.1613 45.8386 47.1613 48.2581C47.1613 50.2959 48.5641 51.9992 50.4516 52.4894V61.4194H46.0645V57.7682L45.5677 57.4436C42.4441 55.4057 40.5806 51.9717 40.5806 48.2581C40.5806 42.2105 45.5008 37.2903 51.5484 37.2903C57.596 37.2903 62.5161 42.2105 62.5161 48.2581C62.5161 51.9717 60.6527 55.4057 57.5291 57.4436ZM51.5484 50.4516C50.3386 50.4516 49.3548 49.4678 49.3548 48.2581C49.3548 47.0483 50.3386 46.0645 51.5484 46.0645C52.7581 46.0645 53.7419 47.0483 53.7419 48.2581C53.7419 49.4678 52.7581 50.4516 51.5484 50.4516Z" fill="white"/>
<path d="M52.6452 39.4839H50.4516V41.6774H52.6452V39.4839Z" fill="white"/>
<path d="M44.5717 42.8233L46.1235 44.374L47.6743 42.8222L46.1224 41.2715L44.5717 42.8233Z" fill="white"/>
<path d="M44.9677 47.1614H42.7742V49.3549H44.9677V47.1614Z" fill="white"/>
<path d="M44.5721 53.6843L46.1228 55.2361L47.6746 53.6854L46.1239 52.1336L44.5721 53.6843Z" fill="white"/>
<path d="M55.4297 53.6861L56.9815 55.2368L58.5322 53.685L56.9804 52.1343L55.4297 53.6861Z" fill="white"/>
<path d="M60.3226 47.1614H58.129V49.3549H60.3226V47.1614Z" fill="white"/>
<path d="M58.5333 42.8357L56.9825 41.2839L55.4307 42.8347L56.9814 44.3865L58.5333 42.8357Z" fill="white"/>
<path d="M16.4516 25.2259C21.2895 25.2259 25.2258 21.2896 25.2258 16.4517C25.2258 11.6138 21.2895 7.67749 16.4516 7.67749C11.6137 7.67749 7.6774 11.6138 7.6774 16.4517C7.6774 21.2896 11.6137 25.2259 16.4516 25.2259ZM9.96966 15.3549C10.1386 14.3579 10.529 13.4367 11.0928 12.6448L12.5734 14.1243L14.1242 12.5735L12.6436 11.0939C13.4366 10.5291 14.3578 10.1387 15.3548 9.96975V12.0646H17.5484V9.96975C18.5453 10.1387 19.4666 10.5291 20.2585 11.0939L18.7779 12.5735L20.3287 14.1243L21.8093 12.6448C22.3742 13.4367 22.7646 14.3579 22.9335 15.3549H20.8387V17.5485H22.9335C22.7646 18.5454 22.3742 19.4667 21.8104 20.2586L20.3298 18.779L18.7789 20.3299L20.2596 21.8094C19.4666 22.3743 18.5453 22.7647 17.5484 22.9336V20.8388H15.3548V22.9336C14.3578 22.7647 13.4366 22.3743 12.6447 21.8094L14.1253 20.3299L12.5745 18.779L11.0938 20.2586C10.529 19.4667 10.1386 18.5454 9.96966 17.5485H12.0645V15.3549H9.96966Z" fill="white"/>
<path d="M49.9625 30.1218L45.3143 28.5721L44.6201 30.6526L52.0354 33.1237L55.7786 26.8852L53.8977 25.7566L51.9388 29.0217C49.8506 21.4748 43.1767 15.9076 35.1637 15.4097L35.0288 17.5988C42.2796 18.0507 48.2888 23.2044 49.9625 30.1218Z" fill="white"/>
<path d="M18.1648 38.2764L22.542 40.4656L23.5236 38.5034L16.0348 34.759L12.2213 41.1137L14.1023 42.2423L16.0765 38.952C18.1549 46.5143 24.8255 52.0946 32.8363 52.5904L32.9712 50.4012C25.8729 49.9603 19.9679 44.9941 18.1648 38.2764Z" fill="white"/>
</svg>
