<svg width="42" height="42" viewBox="0 0 42 42" fill="none" xmlns="http://www.w3.org/2000/svg">
<path d="M27.9721 19.3956L27.9721 19.3956L27.9714 19.3925C27.2561 16.1735 24.395 13.85 21 13.85C17.0672 13.85 13.85 17.0672 13.85 21C13.85 24.5783 16.883 27.7875 20.4526 28.1485C20.853 28.2305 21.2589 28.4736 21.5434 28.7988C21.8297 29.126 21.9785 29.5178 21.9029 29.8956C21.7387 30.7167 21.0882 31.35 20.3 31.35H20.1323C14.7861 30.829 10.65 26.3438 10.65 21C10.65 15.3078 15.3078 10.65 21 10.65C25.8337 10.65 29.9691 13.7549 31.0033 18.5814L31.006 18.5939L31.0107 18.6057C31.1643 18.9895 31.0909 19.421 30.8689 19.7843C30.6464 20.1484 30.2856 20.4249 29.8956 20.5029L29.8821 20.5056L29.8693 20.5107C29.4855 20.6643 29.054 20.5909 28.6907 20.3689C28.3266 20.1464 28.0501 19.7856 27.9721 19.3956Z" fill="#52B95D" stroke="white" stroke-width="0.3"/>
<path d="M35.15 20.125H35.1504L35.1496 20.1143C34.6191 12.687 28.4299 6.85 21 6.85C13.2172 6.85 6.85 13.2172 6.85 21C6.85 28.7828 13.2172 35.15 21 35.15C21.4909 35.15 21.8883 35.313 22.1627 35.5873C22.437 35.8616 22.6 36.2591 22.6 36.75C22.6 37.2409 22.437 37.6384 22.1627 37.9127C21.8883 38.187 21.4909 38.35 21 38.35C11.4578 38.35 3.65 30.5422 3.65 21C3.65 11.4578 11.4578 3.65 21 3.65C30.195 3.65 37.6563 10.763 38.3504 19.7865L38.3499 19.7865L38.352 19.7997C38.5129 20.7645 37.876 21.55 36.925 21.55H36.9126L36.9003 21.552C35.9355 21.7129 35.15 21.076 35.15 20.125Z" fill="#52B95D" stroke="white" stroke-width="0.3"/>
<path d="M37.1689 25.4811L37.182 25.4941L37.1978 25.5036C38.0154 25.9942 38.5178 27.1557 38.352 28.1504L38.352 28.1503L38.3515 28.1538C38.1858 29.3139 37.3577 30.1469 36.3547 30.482L32.8569 31.5313L32.7633 31.5594L32.7512 31.6564L32.2262 35.8564C32.0584 37.1982 31.23 38.1816 29.9155 38.35H29.9147H29.9137H29.9127H29.9117H29.9106H29.9096H29.9086H29.9076H29.9065H29.9055H29.9045H29.9035H29.9024H29.9014H29.9004H29.8994H29.8983H29.8973H29.8963H29.8953H29.8942H29.8932H29.8922H29.8912H29.8901H29.8891H29.8881H29.8871H29.886H29.885H29.884H29.883H29.8819H29.8809H29.8799H29.8789H29.8778H29.8768H29.8758H29.8748H29.8737H29.8727H29.8717H29.8707H29.8696H29.8686H29.8676H29.8666H29.8655H29.8645H29.8635H29.8625H29.8614H29.8604H29.8594H29.8584H29.8573H29.8563H29.8553H29.8543H29.8532H29.8522H29.8512H29.8501H29.8491H29.8481H29.8471H29.846H29.845H29.844H29.843H29.8419H29.8409H29.8399H29.8389H29.8378H29.8368H29.8358H29.8348H29.8337H29.8327H29.8317H29.8307H29.8296H29.8286H29.8276H29.8266H29.8255H29.8245H29.8235H29.8225H29.8214H29.8204H29.8194H29.8184H29.8173H29.8163H29.8153H29.8143H29.8132H29.8122H29.8112H29.8102H29.8091H29.8081H29.8071H29.8061H29.805H29.804H29.803H29.802H29.8009H29.7999H29.7989H29.7979H29.7968H29.7958H29.7948H29.7938H29.7927H29.7917H29.7907H29.7897H29.7886H29.7876H29.7866H29.7855H29.7845H29.7835H29.7825H29.7814H29.7804H29.7794H29.7784H29.7773H29.7763H29.7753H29.7743H29.7732H29.7722H29.7712H29.7702H29.7691H29.7681H29.7671H29.7661H29.765H29.764H29.763H29.762H29.7609H29.7599H29.7589H29.7579H29.7568H29.7558H29.7548H29.7538H29.7527H29.7517H29.7507H29.7497H29.7486H29.7476H29.7466H29.7456H29.7445H29.7435H29.7425H29.7415H29.7404H29.7394H29.7384H29.7374H29.7363H29.7353H29.7343H29.7333H29.7322H29.7312H29.7302H29.7292H29.7281H29.7271H29.7261H29.7251H29.724H29.723H29.722H29.7209H29.7199H29.7189H29.7179H29.7168H29.7158H29.7148H29.7138H29.7127H29.7117H29.7107H29.7097H29.7086H29.7076H29.7066H29.7056H29.7045H29.7035H29.7025H29.7015H29.7004H29.6994H29.6984H29.6974H29.6963H29.6953H29.6943H29.6933H29.6922H29.6912H29.6902H29.6892H29.6881H29.6871H29.6861H29.6851H29.684H29.683H29.682H29.681H29.6799H29.6789H29.6779H29.6769H29.6758H29.6748H29.6738H29.6728H29.6717H29.6707H29.6697H29.6687H29.6676H29.6666H29.6656H29.6646H29.6635H29.6625H29.6615H29.6605H29.6594H29.6584H29.6574H29.6563H29.6553H29.6543H29.6533H29.6522H29.6512H29.6502H29.6492H29.6481H29.6471H29.6461H29.6451H29.644H29.643H29.642H29.641H29.6399H29.6389H29.6379H29.6369H29.6358H29.6348H29.6338H29.6328H29.6317H29.6307H29.6297H29.6287H29.6276H29.6266H29.6256H29.6246H29.6235H29.6225H29.6215H29.6205H29.6194H29.6184H29.6174H29.6164H29.6153H29.6143H29.6133H29.6123H29.6112H29.6102H29.6092H29.6082H29.6071H29.6061H29.6051H29.6041H29.603H29.602H29.601H29.6H29.5989H29.5979H29.5969H29.5959H29.5948H29.5938H29.5928H29.5917H29.5907H29.5897H29.5887H29.5876H29.5866H29.5856H29.5846H29.5835H29.5825H29.5815H29.5805H29.5794H29.5784H29.5774H29.5764H29.5753H29.5743H29.5733H29.5723H29.5712H29.5702H29.5692H29.5682H29.5671H29.5661H29.5651H29.5641H29.563H29.562H29.561H29.56H29.5589H29.5579H29.5569H29.5559H29.5548H29.5538H29.5528H29.5518H29.5507H29.5497H29.5487H29.5477H29.5466H29.5456H29.5446H29.5436H29.5425H29.5415H29.5405H29.5395H29.5384H29.5374H29.5364H29.5354H29.5343H29.5333H29.5323H29.5313H29.5302H29.5292H29.5282H29.5272H29.5261H29.5251H29.5241H29.523H29.522H29.521H29.52H29.5189H29.5179H29.5169H29.5159H29.5148H29.5138H29.5128H29.5118H29.5107H29.5097H29.5087H29.5077H29.5066H29.5056H29.5046H29.5036H29.5025H29.5015H29.5005H29.4995H29.4984H29.4974H29.4964H29.4954H29.4943H29.4933H29.4923H29.4913H29.4902H29.4892H29.4882H29.4872H29.4861H29.4851H29.4841H29.4831H29.482H29.481H29.48H29.479H29.4779H29.4769H29.4759H29.4749H29.4738H29.4728H29.4718H29.4708H29.4697H29.4687H29.4677H29.4667H29.4656H29.4646H29.4636H29.4626H29.4615H29.4605H29.4595H29.4584H29.4574H29.4564H29.4554H29.4543H29.4533H29.4523H29.4513H29.4502H29.4492H29.4482H29.4472H29.4461H29.4451H29.4441H29.4431H29.442H29.441H29.44H29.439H29.4379H29.4369H29.4359H29.4349H29.4338H29.4328H29.4318H29.4308H29.4297H29.4287H29.4277H29.4267H29.4256H29.4246H29.4236H29.4226H29.4215H29.4205H29.4195H29.4185H29.4174H29.4164H29.4154H29.4144H29.4133H29.4123H29.4113H29.4103H29.4092H29.4082H29.4072H29.4062H29.4051H29.4041H29.4031H29.4021H29.401H29.4C28.4155 38.35 27.4141 37.6906 26.9104 36.6854L21.6616 25.1379L21.6617 25.1379L21.6592 25.1329C21.1628 24.1402 21.3271 22.985 22.1561 22.1561C22.9979 21.3143 24.1651 20.9883 25.1522 21.3172C25.1523 21.3172 25.1525 21.3173 25.1526 21.3173L36.5269 25.1671L36.5503 25.175H36.575C36.6261 25.175 36.7312 25.2052 36.8579 25.2686C36.9799 25.3295 37.0963 25.4084 37.1689 25.4811ZM31.7162 28.4942L31.7163 28.4944L31.7224 28.4923L33.8224 27.7923L34.2493 27.65L33.8224 27.5077L25.4224 24.7077L25.0982 24.5996L25.2382 24.9115L29.0882 33.4865L29.304 33.9673L29.3737 33.4448L29.7235 30.8212C29.7235 30.821 29.7236 30.8208 29.7236 30.8206C29.891 29.6504 30.5522 28.8268 31.7162 28.4942Z" fill="#52B95D" stroke="white" stroke-width="0.3"/>
</svg>
