<svg width="46" height="46" viewBox="0 0 46 46" fill="none" xmlns="http://www.w3.org/2000/svg">
<path d="M27.3126 34.5V32.3438C27.3126 29.7383 30.1462 27.2739 31.9844 25.5157C34.5755 23.0387 35.9375 19.7109 35.9375 15.8126C35.9375 8.62505 30.2118 2.87505 23.0001 2.87505C21.2997 2.87031 19.6153 3.20171 18.0435 3.8502C16.4717 4.49869 15.0436 5.45148 13.8413 6.65378C12.639 7.85608 11.6862 9.28419 11.0377 10.856C10.3892 12.4278 10.0578 14.1122 10.0626 15.8126C10.0626 19.5716 11.483 23.1249 14.0157 25.5157C15.844 27.2416 18.6876 29.7114 18.6876 32.3438V34.5" stroke="#52B95D" stroke-width="2.5" stroke-linecap="round" stroke-linejoin="round"/>
<path d="M20.125 43.125H25.875" stroke="#52B95D" stroke-width="2.5" stroke-linecap="round" stroke-linejoin="round"/>
<path d="M18.6875 38.8125H27.3125" stroke="#52B95D" stroke-width="2.5" stroke-linecap="round" stroke-linejoin="round"/>
<path d="M23 34.5V23" stroke="#52B95D" stroke-width="2.5" stroke-linecap="round" stroke-linejoin="round"/>
<path d="M26.4141 21.5625C26.4141 21.5625 24.4815 23 23 23C21.5185 23 19.5859 21.5625 19.5859 21.5625" stroke="#52B95D" stroke-width="2.5" stroke-linecap="round" stroke-linejoin="round"/>
</svg>
