<svg width="40" height="41" viewBox="0 0 40 41" fill="none" xmlns="http://www.w3.org/2000/svg">
<path d="M19.7664 40.0144C30.5329 40.0144 39.2608 31.2537 39.2608 20.4469C39.2608 9.64005 30.5329 0.879395 19.7664 0.879395C9 0.879395 0.272095 9.64005 0.272095 20.4469C0.272095 31.2537 9 40.0144 19.7664 40.0144Z" fill="#52B95D"/>
<path d="M29.5291 14.9704C28.8818 15.2577 28.1856 15.4544 27.4558 15.5398C28.2011 15.092 28.7735 14.3828 29.0417 13.5365C28.3429 13.9532 27.5719 14.2534 26.7519 14.4165C26.0918 13.7125 25.1531 13.2725 24.1165 13.2725C22.1233 13.2725 20.5065 14.8953 20.5065 16.8961C20.5065 17.1808 20.5374 17.4577 20.6019 17.7217C17.603 17.569 14.9418 16.1299 13.1626 13.9377C12.8506 14.4734 12.6752 15.0946 12.6752 15.7598C12.6752 17.0151 13.3121 18.1255 14.2817 18.7752C13.6912 18.7545 13.1316 18.5914 12.6468 18.3222C12.6468 18.3377 12.6468 18.3507 12.6468 18.3688C12.6468 20.1237 13.8897 21.5886 15.5426 21.9225C15.2409 22.0054 14.9212 22.0494 14.5911 22.0494C14.359 22.0494 14.1321 22.0261 13.9129 21.9847C14.3719 23.4237 15.7051 24.472 17.2832 24.5005C16.048 25.4711 14.4931 26.0509 12.8016 26.0509C12.5102 26.0509 12.2214 26.0353 11.9403 25.9991C13.5365 27.0292 15.4343 27.6271 17.474 27.6271C24.114 27.6271 27.7421 22.1063 27.7421 17.3205C27.7421 17.1627 27.7395 17.0074 27.7343 16.8495C28.4331 16.337 29.0469 15.6977 29.5291 14.9704Z" fill="white"/>
</svg>
